<svg width="60" height="60" viewBox="0 0 60 60" fill="none" xmlns="http://www.w3.org/2000/svg">
<path d="M51.1957 8.7907C45.5255 3.12051 38.0033 0 29.9864 0C21.9695 0 14.4473 3.12051 8.77713 8.7907C-2.1827 19.7505 -2.9438 37.2939 6.88707 49.129C5.92301 51.0698 4.37544 53.3277 2.07946 54.4567C0.975863 55.0021 0.354298 56.1818 0.544573 57.3996C0.734848 58.6173 1.67354 59.5687 2.8913 59.759C3.46212 59.8478 4.27396 59.9366 5.26339 59.9366C7.91455 59.9366 11.8215 59.315 15.8173 56.4355C20.2697 58.833 25.1408 60 29.9737 60C37.737 60 45.4241 56.9937 51.2084 51.2093C56.8786 45.5391 59.9991 38.0169 59.9991 30C59.9991 21.9831 56.8659 14.4609 51.1957 8.7907ZM48.7729 48.7865C40.2105 57.3488 26.9547 59.0486 16.5277 52.9218C15.8427 52.5159 14.9928 52.6427 14.4473 53.1882C14.3966 53.2135 14.3458 53.2516 14.3078 53.2896C10.8702 55.9535 7.49595 56.5116 5.26339 56.5116H5.2507C7.82576 54.6342 9.44944 51.8436 10.4008 49.6744C10.553 49.3066 10.5784 48.926 10.4896 48.5708C10.4515 48.2283 10.312 47.8858 10.071 47.6068C0.785588 37.1163 1.26762 21.1332 11.1873 11.2135C21.5509 0.849895 38.4093 0.849895 48.7602 11.2135C59.1365 21.5772 59.1365 38.4228 48.7729 48.7865Z" fill="#404040"/>
<path d="M29.9851 32.1057C31.1481 32.1057 32.0908 31.1629 32.0908 30C32.0908 28.837 31.1481 27.8943 29.9851 27.8943C28.8222 27.8943 27.8794 28.837 27.8794 30C27.8794 31.1629 28.8222 32.1057 29.9851 32.1057Z" fill="#404040"/>
<path d="M40.8435 32.1057C42.0064 32.1057 42.9492 31.1629 42.9492 30C42.9492 28.837 42.0064 27.8943 40.8435 27.8943C39.6805 27.8943 38.7378 28.837 38.7378 30C38.7378 31.1629 39.6805 32.1057 40.8435 32.1057Z" fill="#404040"/>
<path d="M19.1267 32.1057C20.2897 32.1057 21.2324 31.1629 21.2324 30C21.2324 28.837 20.2897 27.8943 19.1267 27.8943C17.9638 27.8943 17.021 28.837 17.021 30C17.021 31.1629 17.9638 32.1057 19.1267 32.1057Z" fill="#404040"/>
</svg>
