<svg width="0" height="0" class="hidden">
  <symbol xmlns="http://www.w3.org/2000/svg" viewBox="0 0 482.9 482.9" id="avatar">
    <path d="M239.7 260.2h3.2c29.3-.5 53-10.8 70.5-30.5 38.5-43.4 32.1-117.8 31.4-124.9-2.5-53.3-27.7-78.8-48.5-90.7C280.8 5.2 262.7.4 242.5 0h-1.7c-11.1 0-32.9 1.8-53.8 13.7-21 11.9-46.6 37.4-49.1 91.1-.7 7.1-7.1 81.5 31.4 124.9 17.4 19.7 41.1 30 70.4 30.5zm-75.1-152.9c0-.3.1-.6.1-.8 3.3-71.7 54.2-79.4 76-79.4h1.2c27 .6 72.9 11.6 76 79.4 0 .3 0 .6.1.8.1.7 7.1 68.7-24.7 104.5-12.6 14.2-29.4 21.2-51.5 21.4h-1c-22-.2-38.9-7.2-51.4-21.4-31.7-35.6-24.9-103.9-24.8-104.5z"></path>
    <path d="M446.8 383.6v-.3c0-.8-.1-1.6-.1-2.5-.6-19.8-1.9-66.1-45.3-80.9-.3-.1-.7-.2-1-.3-45.1-11.5-82.6-37.5-83-37.8-6.1-4.3-14.5-2.8-18.8 3.3-4.3 6.1-2.8 14.5 3.3 18.8 1.7 1.2 41.5 28.9 91.3 41.7 23.3 8.3 25.9 33.2 26.6 56 0 .9 0 1.7.1 2.5.1 9-.5 22.9-2.1 30.9-16.2 9.2-79.7 41-176.3 41-96.2 0-160.1-31.9-176.4-41.1-1.6-8-2.3-21.9-2.1-30.9 0-.8.1-1.6.1-2.5.7-22.8 3.3-47.7 26.6-56 49.8-12.8 89.6-40.6 91.3-41.7 6.1-4.3 7.6-12.7 3.3-18.8-4.3-6.1-12.7-7.6-18.8-3.3-.4.3-37.7 26.3-83 37.8-.4.1-.7.2-1 .3-43.4 14.9-44.7 61.2-45.3 80.9 0 .9 0 1.7-.1 2.5v.3c-.1 5.2-.2 31.9 5.1 45.3 1 2.6 2.8 4.8 5.2 6.3 3 2 74.9 47.8 195.2 47.8s192.2-45.9 195.2-47.8c2.3-1.5 4.2-3.7 5.2-6.3 5-13.3 4.9-40 4.8-45.2z"></path>
  </symbol>
  <symbol xmlns="http://www.w3.org/2000/svg" viewBox="0 0 490 490" id="box">
    <path d="M480.25 472.9V136.8c0-.5 0-1.1-.1-1.6 0-.2 0-.4-.1-.6 0-.3-.1-.6-.1-1 0-.2-.1-.5-.2-.7-.1-.3-.1-.5-.2-.8-.1-.2-.1-.5-.2-.7s-.2-.5-.3-.7c-.1-.2-.2-.5-.3-.7-.1-.3-.2-.5-.4-.8-.1-.3-.3-.5-.4-.8-.2-.4-.4-.7-.7-1.1-.1-.2-.2-.3-.4-.5-.1-.2-.3-.4-.4-.6L382.35 6.5c-3.3-4.1-8.2-6.5-13.5-6.5h-247.6c-5.3 0-10.2 2.4-13.5 6.5l-94.2 119.6c-.2.2-.3.4-.4.6-.1.2-.2.3-.4.5-.2.4-.5.7-.7 1.1-.1.3-.3.5-.4.8s-.3.5-.4.8c-.1.2-.2.5-.3.7s-.2.5-.3.7-.2.5-.2.7c-.1.3-.1.5-.2.8-.1.2-.1.5-.2.7-.1.3-.1.6-.1 1 0 .2-.1.4-.1.6 0 .5-.1 1.1-.1 1.6v336.1c0 9.5 7.7 17.2 17.1 17.2h436.1c9.6 0 17.3-7.7 17.3-17.1zm-52.5-353.3h-165.6V34.3h98.3l67.3 85.3zm-298.2-85.3h98.3v85.3H62.35l67.2-85.3zm-85.4 421.4V153.9h401.8v301.8H44.15z"></path>
  </symbol>
  <symbol xmlns="http://www.w3.org/2000/svg" viewBox="0 0 473 473" id="chat">
    <path d="M403.581 69.3c-44.7-44.7-104-69.3-167.2-69.3s-122.5 24.6-167.2 69.3c-86.4 86.4-92.4 224.7-14.9 318-7.6 15.3-19.8 33.1-37.9 42-8.7 4.3-13.6 13.6-12.1 23.2s8.9 17.1 18.5 18.6c4.5.7 10.9 1.4 18.7 1.4 20.9 0 51.7-4.9 83.2-27.6 35.1 18.9 73.5 28.1 111.6 28.1 61.2 0 121.8-23.7 167.4-69.3 44.7-44.7 69.3-104 69.3-167.2s-24.7-122.5-69.4-167.2zm-19.1 315.3c-67.5 67.5-172 80.9-254.2 32.6-5.4-3.2-12.1-2.2-16.4 2.1-.4.2-.8.5-1.1.8-27.1 21-53.7 25.4-71.3 25.4h-.1c20.3-14.8 33.1-36.8 40.6-53.9 1.2-2.9 1.4-5.9.7-8.7-.3-2.7-1.4-5.4-3.3-7.6-73.2-82.7-69.4-208.7 8.8-286.9 81.7-81.7 214.6-81.7 296.2 0 81.8 81.7 81.8 214.5.1 296.2z"></path>
    <circle cx="236.381" cy="236.5" r="16.6"></circle>
    <circle cx="321.981" cy="236.5" r="16.6"></circle>
    <circle cx="150.781" cy="236.5" r="16.6"></circle>
  </symbol>
  <symbol xmlns="http://www.w3.org/2000/svg" viewBox="0 0 512 512" id="coins">
    <path d="M336 16c-85.312 0-176 28.032-176 80v64c0 8.832 7.168 16 16 16s16-7.168 16-16v-16.672C225.952 164.736 282.016 176 336 176s110.048-11.264 144-32.672V160c0 15.648-39.36 40.608-113.344 46.784-8.768.704-15.328 8.48-14.592 17.28.672 8.352 7.68 14.656 15.904 14.656.48 0 .896-.032 1.376-.064 41.664-3.488 83.168-14.272 110.656-31.776V224c0 13.664-28.992 33.312-82.784 42.816-8.672 1.536-14.496 9.856-12.96 18.528 1.376 7.744 8.128 13.216 15.712 13.216.928 0 1.888-.064 2.816-.256 32.544-5.728 58.592-15.104 77.216-27.008V288c0 13.664-28.992 33.312-82.784 42.816-8.672 1.536-14.496 9.856-12.96 18.528 1.376 7.744 8.128 13.216 15.712 13.216.928 0 1.888-.064 2.816-.256 32.544-5.728 58.592-15.136 77.216-27.008V352c0 13.664-28.992 33.312-82.784 42.816-8.672 1.536-14.496 9.856-12.96 18.528 1.376 7.744 8.128 13.216 15.712 13.216.928 0 1.888-.064 2.816-.256 32.544-5.728 58.592-15.136 77.216-27.008V416c0 15.648-39.36 40.608-113.344 46.784-8.768.704-15.328 8.48-14.592 17.28.672 8.352 7.68 14.656 15.904 14.656.48 0 .896-.032 1.376-.064C440.352 488.704 512 462.112 512 416V96c0-51.968-90.688-80-176-80zm0 128c-87.904 0-144-28.448-144-48s56.096-48 144-48 144 28.448 144 48-56.096 48-144 48z"></path>
    <path d="M176 208C90.688 208 0 236.032 0 288v128c0 51.968 90.688 80 176 80s176-28.032 176-80V288c0-51.968-90.688-80-176-80zm144 208c0 19.552-56.096 48-144 48S32 435.552 32 416v-16.672C65.952 420.736 122.016 432 176 432s110.048-11.264 144-32.672V416zm0-64c0 19.552-56.096 48-144 48S32 371.552 32 352v-16.672C65.952 356.736 122.016 368 176 368s110.048-11.264 144-32.672V352zm-144-16c-87.904 0-144-28.448-144-48s56.096-48 144-48 144 28.448 144 48-56.096 48-144 48z"></path>
  </symbol>
  <symbol xmlns="http://www.w3.org/2000/svg" viewBox="0 0 488.8 488.8" id="delivery">
    <path d="M467.3 172.1c-13.2-14.3-32-22.2-52.9-22.2h-50.3v-27.2c0-6.6-5.4-12-12-12H112.5c-6.6 0-12 5.4-12 12v41.8H53.8c-6.6 0-12 5.4-12 12s5.4 12 12 12h58.8c6.6 0 12-5.4 12-12v-41.8h215.6v188.1h-113c-.5 0-1 0-1.5.1-6-14.8-20.5-25.3-37.4-25.3-17 0-31.5 10.6-37.4 25.5-.9-.2-1.7-.3-2.6-.3h-23.7v-41.9c0-6.6-5.4-12-12-12H53.8c-6.6 0-12 5.4-12 12s5.4 12 12 12h46.7v41.8c0 6.6 5.4 12 12 12H149c4 18 20.1 31.4 39.3 31.4s35.2-13.4 39.3-31.4h143.8c4.1 17.9 20.1 31.4 39.3 31.4s35.2-13.4 39.3-31.4h26.8c6.6 0 12-5.4 12-12V235c0-25.9-7.5-47.7-21.5-62.9zm-279 182.1c-9 0-16.3-7.3-16.3-16.3s7.3-16.3 16.3-16.3 16.3 7.3 16.3 16.3-7.3 16.3-16.3 16.3zm222.4 0c-9 0-16.3-7.3-16.3-16.3s7.3-16.3 16.3-16.3 16.3 7.3 16.3 16.3c-.1 9-7.4 16.3-16.3 16.3zm54.1-31.4H448c-6-14.7-20.5-25.2-37.3-25.2s-31.3 10.4-37.3 25.2h-9.2V173.9h50.3c31.5 0 50.3 22.9 50.3 61.2v87.7z"></path>
    <path d="M206.1 251.2c-4.7 4.7-4.7 12.3 0 17 2.3 2.3 5.4 3.5 8.5 3.5s6.1-1.2 8.5-3.5l30.9-30.9.1-.1c.2-.3.5-.5.7-.8.1-.2.2-.3.3-.5.1-.2.2-.3.4-.5l.3-.6c.1-.2.2-.3.3-.5l.3-.6c.1-.2.2-.3.2-.5.1-.2.1-.4.2-.6.1-.2.1-.4.2-.5.1-.2.1-.4.1-.6 0-.2.1-.4.1-.6 0-.2.1-.4.1-.7 0-.2.1-.3.1-.5.1-.8.1-1.6 0-2.4 0-.2 0-.3-.1-.5 0-.2-.1-.4-.1-.7 0-.2-.1-.4-.1-.6 0-.2-.1-.4-.1-.6-.1-.2-.1-.4-.2-.5-.1-.2-.1-.4-.2-.6-.1-.2-.2-.3-.2-.5l-.3-.6c-.1-.2-.2-.3-.3-.5l-.3-.6c-.1-.2-.2-.3-.4-.5-.1-.2-.2-.3-.3-.5-.2-.3-.5-.5-.7-.8l-.1-.1-29.4-29.4c-4.7-4.7-12.3-4.7-17 0s-4.7 12.3 0 17l8.9 8.9H12c-6.6 0-12 5.4-12 12s5.4 12 12 12h204.4l-10.3 11z"></path>
  </symbol>
  <symbol xmlns="http://www.w3.org/2000/svg" viewBox="0 0 489.8 489.8" id="dollar-symbol">
    <path d="M268.5 286.9h-11.6v-79.6h47.7c6.6 0 12-5.4 12-12s-5.4-12-12-12h-47.7V66.1L281.8 91c4.7 4.7 12.3 4.7 17 0s4.7-12.3 0-17l-45.3-45.3c-2.3-2.3-5.3-3.5-8.5-3.5s-6.2 1.3-8.5 3.5l-45.4 45.4c-4.7 4.7-4.7 12.3 0 17 2.3 2.3 5.4 3.5 8.5 3.5s6.1-1.2 8.5-3.5l24.8-24.9v117.1h-11.6c-35.2 0-63.8 28.6-63.8 63.8s28.6 63.8 63.8 63.8h11.6v79.6h-49.3c-6.6 0-12 5.4-12 12s5.4 12 12 12h49.3v38.1c0 6.6 5.4 12 12 12s12-5.4 12-12v-38.1h11.6c35.2 0 63.8-28.6 63.8-63.8s-28.6-63.8-63.8-63.8zm-47.2 0c-21.9 0-39.8-17.9-39.8-39.8s17.9-39.8 39.8-39.8h11.6v79.6h-11.6zm47.2 103.6h-11.6v-79.6h11.6c21.9 0 39.8 17.9 39.8 39.8 0 22-17.8 39.8-39.8 39.8zm168.7-109.2h-6.5v-56.9h34.7c6.6 0 12-5.4 12-12s-5.4-12-12-12h-34.7v-82.7l14.9 14.9c4.7 4.7 12.3 4.7 17 0s4.7-12.3 0-17l-35.4-35.4c-4.7-4.7-12.3-4.7-17 0l-35.5 35.5c-4.7 4.7-4.7 12.3 0 17 2.3 2.3 5.4 3.5 8.5 3.5s6.1-1.2 8.5-3.5l14.9-14.9v82.5h-6.5c-28.9 0-52.5 23.5-52.5 52.5s23.5 52.5 52.5 52.5h6.5v56.9h-35.7c-6.6 0-12 5.4-12 12s5.4 12 12 12h35.9v27.2c0 6.6 5.4 12 12 12s12-5.4 12-12v-27.2h6.5c28.9 0 52.5-23.5 52.5-52.5s-23.6-52.4-52.6-52.4zm-36.9 0c-15.7 0-28.5-12.8-28.5-28.5s12.8-28.5 28.5-28.5h6.5v56.9h-6.5v.1zm36.9 80.9h-6.5v-56.9h6.5c15.7 0 28.5 12.8 28.5 28.5 0 15.6-12.8 28.4-28.5 28.4zM89.5 281.3H83v-56.9h34.7c6.6 0 12-5.4 12-12s-5.4-12-12-12H83v-82.7l14.9 14.9c4.7 4.7 12.3 4.7 17 0s4.7-12.3 0-17L79.6 80.3c-4.7-4.7-12.3-4.7-17 0l-35.5 35.5c-4.7 4.7-4.7 12.3 0 17 2.3 2.3 5.4 3.5 8.5 3.5s6.1-1.2 8.5-3.5L59 117.9v82.5h-6.5C23.6 200.4 0 223.9 0 252.9s23.5 52.5 52.5 52.5H59v56.8H23.2c-6.6 0-12 5.4-12 12s5.4 12 12 12h35.9v27.2c0 6.6 5.4 12 12 12s12-5.4 12-12v-27.2h6.5c28.9 0 52.5-23.5 52.5-52.5s-23.7-52.4-52.6-52.4zm-36.9 0c-15.7 0-28.5-12.8-28.5-28.5s12.8-28.5 28.5-28.5h6.5v56.9h-6.5v.1zm36.9 80.9H83v-56.9h6.5c15.7 0 28.5 12.8 28.5 28.5 0 15.6-12.8 28.4-28.5 28.4z"></path>
  </symbol>
  <symbol xmlns="http://www.w3.org/2000/svg" viewBox="0 0 486.4 486.4" id="garbage">
    <path d="M446 70H344.8V53.5c0-29.5-24-53.5-53.5-53.5h-96.2c-29.5 0-53.5 24-53.5 53.5V70H40.4c-7.5 0-13.5 6-13.5 13.5S32.9 97 40.4 97h24.4v317.2c0 39.8 32.4 72.2 72.2 72.2h212.4c39.8 0 72.2-32.4 72.2-72.2V97H446c7.5 0 13.5-6 13.5-13.5S453.5 70 446 70zM168.6 53.5c0-14.6 11.9-26.5 26.5-26.5h96.2c14.6 0 26.5 11.9 26.5 26.5V70H168.6V53.5zm226 360.7c0 24.9-20.3 45.2-45.2 45.2H137c-24.9 0-45.2-20.3-45.2-45.2V97h302.9v317.2h-.1z"></path>
    <path d="M243.2 411c7.5 0 13.5-6 13.5-13.5V158.9c0-7.5-6-13.5-13.5-13.5s-13.5 6-13.5 13.5v238.5c0 7.5 6 13.6 13.5 13.6zm-88.1-14.9c7.5 0 13.5-6 13.5-13.5V173.7c0-7.5-6-13.5-13.5-13.5s-13.5 6-13.5 13.5v208.9c0 7.5 6.1 13.5 13.5 13.5zm176.2 0c7.5 0 13.5-6 13.5-13.5V173.7c0-7.5-6-13.5-13.5-13.5s-13.5 6-13.5 13.5v208.9c0 7.5 6 13.5 13.5 13.5z"></path>
  </symbol>
  <symbol xmlns="http://www.w3.org/2000/svg" viewBox="0 0 489.7 489.7" id="list">
    <path d="M52.7 134.75c29.1 0 52.7-23.7 52.7-52.7s-23.6-52.8-52.7-52.8S0 52.95 0 81.95s23.7 52.8 52.7 52.8zm0-81c15.6 0 28.2 12.7 28.2 28.2s-12.7 28.2-28.2 28.2-28.2-12.7-28.2-28.2 12.7-28.2 28.2-28.2zm0 243.8c29.1 0 52.7-23.7 52.7-52.7s-23.6-52.7-52.7-52.7S0 215.75 0 244.85s23.7 52.7 52.7 52.7zm0-80.9c15.6 0 28.2 12.7 28.2 28.2s-12.7 28.2-28.2 28.2-28.2-12.6-28.2-28.2 12.7-28.2 28.2-28.2zm0 243.8c29.1 0 52.7-23.7 52.7-52.7 0-29.1-23.7-52.7-52.7-52.7S0 378.75 0 407.75c0 29 23.7 52.7 52.7 52.7zm0-81c15.6 0 28.2 12.7 28.2 28.2 0 15.6-12.7 28.2-28.2 28.2s-28.2-12.7-28.2-28.2 12.7-28.2 28.2-28.2zm123.2-285.2h301.5c6.8 0 12.3-5.5 12.3-12.3s-5.5-12.3-12.3-12.3H175.9c-6.8 0-12.3 5.5-12.3 12.3s5.5 12.3 12.3 12.3zm0 162.9h301.5c6.8 0 12.3-5.5 12.3-12.3s-5.5-12.3-12.3-12.3H175.9c-6.8 0-12.3 5.5-12.3 12.3s5.5 12.3 12.3 12.3zm0 162.8h301.5c6.8 0 12.3-5.5 12.3-12.3s-5.5-12.3-12.3-12.3H175.9c-6.8 0-12.3 5.5-12.3 12.3s5.5 12.3 12.3 12.3z"></path>
  </symbol>
  <symbol xmlns="http://www.w3.org/2000/svg" viewBox="0 0 471.2 471.2" id="logout">
    <path d="M227.619 444.2h-122.9c-33.4 0-60.5-27.2-60.5-60.5V87.5c0-33.4 27.2-60.5 60.5-60.5h124.9c7.5 0 13.5-6 13.5-13.5s-6-13.5-13.5-13.5h-124.9c-48.3 0-87.5 39.3-87.5 87.5v296.2c0 48.3 39.3 87.5 87.5 87.5h122.9c7.5 0 13.5-6 13.5-13.5s-6.1-13.5-13.5-13.5z"></path>
    <path d="M450.019 226.1l-85.8-85.8c-5.3-5.3-13.8-5.3-19.1 0-5.3 5.3-5.3 13.8 0 19.1l62.8 62.8h-273.9c-7.5 0-13.5 6-13.5 13.5s6 13.5 13.5 13.5h273.9l-62.8 62.8c-5.3 5.3-5.3 13.8 0 19.1 2.6 2.6 6.1 4 9.5 4s6.9-1.3 9.5-4l85.8-85.8c5.4-5.4 5.4-14 .1-19.2z"></path>
  </symbol>
  <symbol xmlns="http://www.w3.org/2000/svg" viewBox="0 0 451 451" id="magnifying-glass">
    <path d="M447.05 428l-109.6-109.6c29.4-33.8 47.2-77.9 47.2-126.1C384.65 86.2 298.35 0 192.35 0 86.25 0 .05 86.3.05 192.3s86.3 192.3 192.3 192.3c48.2 0 92.3-17.8 126.1-47.2L428.05 447c2.6 2.6 6.1 4 9.5 4s6.9-1.3 9.5-4c5.2-5.2 5.2-13.8 0-19zM26.95 192.3c0-91.2 74.2-165.3 165.3-165.3 91.2 0 165.3 74.2 165.3 165.3s-74.1 165.4-165.3 165.4c-91.1 0-165.3-74.2-165.3-165.4z"></path>
  </symbol>
  <symbol xmlns="http://www.w3.org/2000/svg" viewBox="0 0 486.025 486.025" id="percentage">
    <path d="M420.725 85.413c-42.1-42.1-98.1-65.3-157.6-65.3-60.6 0-117.3 23.9-159.6 67.3-4.6 4.7-4.5 12.3.2 17 4.7 4.6 12.3 4.5 17-.2 37.8-38.7 88.3-60 142.4-60 109.7-.1 198.9 89.1 198.9 198.8s-89.2 198.9-198.9 198.9-198.9-89.2-198.9-198.9v-2.5l19.8 19.8c2.3 2.3 5.4 3.5 8.5 3.5s6.1-1.2 8.5-3.5c4.7-4.7 4.7-12.3 0-17l-40.2-40.3c-4.7-4.7-12.3-4.7-17 0l-40.3 40.3c-4.7 4.7-4.7 12.3 0 17s12.3 4.7 17 0l19.8-19.8v2.5c0 59.5 23.2 115.5 65.3 157.6s98.1 65.3 157.6 65.3 115.5-23.2 157.6-65.3 65.2-98.1 65.2-157.6-23.2-115.5-65.3-157.6z"></path>
    <path d="M326.925 161.913l-147.4 147.3c-4.7 4.7-4.7 12.3 0 17 2.3 2.3 5.4 3.5 8.5 3.5s6.1-1.2 8.5-3.5l147.4-147.4c4.7-4.7 4.7-12.3 0-17-4.7-4.6-12.3-4.6-17 .1zm-38.6 99.2c-16.7 16.7-16.7 44 0 60.7 8.1 8.1 18.9 12.6 30.4 12.6s22.3-4.5 30.4-12.6c16.7-16.7 16.7-44 0-60.7-8.1-8.1-18.9-12.6-30.4-12.6s-22.2 4.5-30.4 12.6zm43.8 43.8c-3.6 3.6-8.3 5.5-13.4 5.5s-9.8-2-13.4-5.5c-7.4-7.4-7.4-19.4 0-26.8 3.6-3.6 8.3-5.5 13.4-5.5s9.8 2 13.4 5.5c7.4 7.4 7.4 19.4 0 26.8zm-124.2-153.7c-11.5 0-22.3 4.5-30.4 12.6s-12.6 18.9-12.6 30.4 4.5 22.3 12.6 30.4 18.9 12.6 30.4 12.6 22.3-4.5 30.4-12.6c8.1-8.1 12.6-18.9 12.6-30.4s-4.5-22.3-12.6-30.4c-8.2-8.1-18.9-12.6-30.4-12.6zm13.4 56.4c-3.6 3.6-8.3 5.5-13.4 5.5s-9.8-2-13.4-5.5c-3.6-3.6-5.5-8.3-5.5-13.4s2-9.8 5.5-13.4c3.6-3.6 8.3-5.5 13.4-5.5s9.8 2 13.4 5.5c3.6 3.6 5.5 8.3 5.5 13.4 0 5-1.9 9.8-5.5 13.4z"></path>
  </symbol>
  <symbol xmlns="http://www.w3.org/2000/svg" viewBox="0 0 476.3 476.3" id="pie-chart">
    <path d="M411.75 250.2h-185.6V64.6c0-7.5-6-13.5-13.5-13.5C95.45 51.1.05 146.5.05 263.7s95.4 212.6 212.6 212.6 212.6-95.4 212.6-212.6c0-7.4-6.1-13.5-13.5-13.5zm-199.1 199.1c-102.3 0-185.6-83.3-185.6-185.6 0-97.8 76-178.2 172.1-185.1v185.1c0 7.5 6 13.5 13.5 13.5h185.1c-6.9 96.1-87.3 172.1-185.1 172.1z"></path>
    <path d="M476.25 211.9c-.2-51.6-19.1-101.3-53.2-140C382.65 26.2 324.65 0 263.65 0c-7.5 0-13.5 6-13.5 13.5v199.1c0 7.5 6 13.5 13.5 13.5h199.1c7.5 0 13.5-6 13.5-13.5v-.7zm-199.1-12.7V27.6c48.2 3.5 93.4 25.8 125.6 62.3 27 30.5 43 68.9 46 109.3h-171.6z"></path>
  </symbol>
  <symbol xmlns="http://www.w3.org/2000/svg" viewBox="0 0 488.8 488.8" id="placeholder">
    <path d="M244.252 97.4c-56.4 0-102.2 45.9-102.2 102.2s45.8 102.3 102.2 102.3 102.2-45.9 102.2-102.2-45.8-102.3-102.2-102.3zm0 180c-42.9 0-77.7-34.9-77.7-77.7s34.9-77.7 77.7-77.7 77.7 34.9 77.7 77.7-34.8 77.7-77.7 77.7z"></path>
    <path d="M244.252 0c-2.3 0-4.7 0-7 .1-98.6 3.4-180.1 80-189.5 178.1-1.8 19-.9 38.1 2.6 56.3 0 0 .3 2.3 1.4 6.6 3 13.5 7.5 26.6 13.2 38.8 20.3 48.1 64.8 122.2 161.4 202.4 5.1 4.2 11.5 6.5 18.1 6.5 6.6 0 13-2.3 18.1-6.5 96.5-80.1 141-154.3 161.2-202 5.8-12.5 10.3-25.7 13.3-39.1.6-2.4 1-4.4 1.3-6.3 2.4-12.3 3.6-24.9 3.6-37.5-.2-108.8-88.8-197.4-197.7-197.4zm169.8 230.7c0 .2-.3 1.9-1 5-2.7 11.8-6.6 23.3-11.8 34.7-19.3 45.6-61.7 116.1-154.4 193-.9.7-1.8.9-2.5.9-.6 0-1.6-.2-2.5-.9-92.7-77-135.2-147.5-154.6-193.4-5.1-11-9-22.5-11.7-34.4-.6-2.6-.9-4.2-1-4.7 0-.2-.1-.4-.1-.6-3.1-16.3-3.9-33.1-2.3-49.7 8.3-85.9 79.6-153 166-156 98.1-3.4 179.1 75.4 179.1 172.9 0 11-1.1 22-3.2 33.2z"></path>
  </symbol>
  <symbol xmlns="http://www.w3.org/2000/svg" viewBox="0 0 489.711 489.711" id="reload">
    <path d="M112.156 97.111c72.3-65.4 180.5-66.4 253.8-6.7l-58.1 2.2c-7.5.3-13.3 6.5-13 14 .3 7.3 6.3 13 13.5 13h.5l89.2-3.3c7.3-.3 13-6.2 13-13.5v-1.6l-3.3-88.2c-.3-7.5-6.6-13.3-14-13-7.5.3-13.3 6.5-13 14l2.1 55.3c-36.3-29.7-81-46.9-128.8-49.3-59.2-3-116.1 17.3-160 57.1-60.4 54.7-86 137.9-66.8 217.1 1.5 6.2 7 10.3 13.1 10.3 1.1 0 2.1-.1 3.2-.4 7.2-1.8 11.7-9.1 9.9-16.3-16.8-69.6 5.6-142.7 58.7-190.7zm350.3 98.4c-1.8-7.2-9.1-11.7-16.3-9.9-7.2 1.8-11.7 9.1-9.9 16.3 16.9 69.6-5.6 142.7-58.7 190.7-37.3 33.7-84.1 50.3-130.7 50.3-44.5 0-88.9-15.1-124.7-44.9l58.8-5.3c7.4-.7 12.9-7.2 12.2-14.7s-7.2-12.9-14.7-12.2l-88.9 8c-7.4.7-12.9 7.2-12.2 14.7l8 88.9c.6 7 6.5 12.3 13.4 12.3.4 0 .8 0 1.2-.1 7.4-.7 12.9-7.2 12.2-14.7l-4.8-54.1c36.3 29.4 80.8 46.5 128.3 48.9 3.8.2 7.6.3 11.3.3 55.1 0 107.5-20.2 148.7-57.4 60.4-54.7 86-137.8 66.8-217.1z"></path>
  </symbol>
  <symbol xmlns="http://www.w3.org/2000/svg" viewBox="0 0 478.703 478.703" id="settings">
    <path d="M454.2 189.101l-33.6-5.7c-3.5-11.3-8-22.2-13.5-32.6l19.8-27.7c8.4-11.8 7.1-27.9-3.2-38.1l-29.8-29.8c-5.6-5.6-13-8.7-20.9-8.7-6.2 0-12.1 1.9-17.1 5.5l-27.8 19.8c-10.8-5.7-22.1-10.4-33.8-13.9l-5.6-33.2a29.54 29.54 0 0 0-29.2-24.7h-42.1c-14.5 0-26.8 10.4-29.2 24.7l-5.8 34c-11.2 3.5-22.1 8.1-32.5 13.7l-27.5-19.8c-5-3.6-11-5.5-17.2-5.5-7.9 0-15.4 3.1-20.9 8.7l-29.9 29.8c-10.2 10.2-11.6 26.3-3.2 38.1l20 28.1c-5.5 10.5-9.9 21.4-13.3 32.7l-33.2 5.6a29.54 29.54 0 0 0-24.7 29.2v42.1c0 14.5 10.4 26.8 24.7 29.2l34 5.8c3.5 11.2 8.1 22.1 13.7 32.5l-19.7 27.4c-8.4 11.8-7.1 27.9 3.2 38.1l29.8 29.8c5.6 5.6 13 8.7 20.9 8.7 6.2 0 12.1-1.9 17.1-5.5l28.1-20c10.1 5.3 20.7 9.6 31.6 13l5.6 33.6a29.54 29.54 0 0 0 29.2 24.7h42.2c14.5 0 26.8-10.4 29.2-24.7l5.7-33.6c11.3-3.5 22.2-8 32.6-13.5l27.7 19.8c5 3.6 11 5.5 17.2 5.5 7.9 0 15.3-3.1 20.9-8.7l29.8-29.8c10.2-10.2 11.6-26.3 3.2-38.1l-19.8-27.8c5.5-10.5 10.1-21.4 13.5-32.6l33.6-5.6a29.54 29.54 0 0 0 24.7-29.2v-42.1c.2-14.5-10.2-26.8-24.5-29.2zm-2.3 71.3c0 1.3-.9 2.4-2.2 2.6l-42 7c-5.3.9-9.5 4.8-10.8 9.9-3.8 14.7-9.6 28.8-17.4 41.9-2.7 4.6-2.5 10.3.6 14.7l24.7 34.8c.7 1 .6 2.5-.3 3.4l-29.8 29.8c-.7.7-1.4.8-1.9.8-.6 0-1.1-.2-1.5-.5l-34.7-24.7c-4.3-3.1-10.1-3.3-14.7-.6-13.1 7.8-27.2 13.6-41.9 17.4-5.2 1.3-9.1 5.6-9.9 10.8l-7.1 42c-.2 1.3-1.3 2.2-2.6 2.2h-42.1c-1.3 0-2.4-.9-2.6-2.2l-7-42c-.9-5.3-4.8-9.5-9.9-10.8-14.3-3.7-28.1-9.4-41-16.8-2.1-1.2-4.5-1.8-6.8-1.8-2.7 0-5.5.8-7.8 2.5l-35 24.9c-.5.3-1 .5-1.5.5-.4 0-1.2-.1-1.9-.8l-29.8-29.8c-.9-.9-1-2.3-.3-3.4l24.6-34.5c3.1-4.4 3.3-10.2.6-14.8-7.8-13-13.8-27.1-17.6-41.8-1.4-5.1-5.6-9-10.8-9.9l-42.3-7.2c-1.3-.2-2.2-1.3-2.2-2.6v-42.1c0-1.3.9-2.4 2.2-2.6l41.7-7c5.3-.9 9.6-4.8 10.9-10 3.7-14.7 9.4-28.9 17.1-42 2.7-4.6 2.4-10.3-.7-14.6l-24.9-35c-.7-1-.6-2.5.3-3.4l29.8-29.8c.7-.7 1.4-.8 1.9-.8.6 0 1.1.2 1.5.5l34.5 24.6c4.4 3.1 10.2 3.3 14.8.6 13-7.8 27.1-13.8 41.8-17.6 5.1-1.4 9-5.6 9.9-10.8l7.2-42.3c.2-1.3 1.3-2.2 2.6-2.2h42.1c1.3 0 2.4.9 2.6 2.2l7 41.7c.9 5.3 4.8 9.6 10 10.9 15.1 3.8 29.5 9.7 42.9 17.6 4.6 2.7 10.3 2.5 14.7-.6l34.5-24.8c.5-.3 1-.5 1.5-.5.4 0 1.2.1 1.9.8l29.8 29.8c.9.9 1 2.3.3 3.4l-24.7 34.7c-3.1 4.3-3.3 10.1-.6 14.7 7.8 13.1 13.6 27.2 17.4 41.9 1.3 5.2 5.6 9.1 10.8 9.9l42 7.1c1.3.2 2.2 1.3 2.2 2.6v42.1h-.1z"></path>
    <path d="M239.4 136.001c-57 0-103.3 46.3-103.3 103.3s46.3 103.3 103.3 103.3 103.3-46.3 103.3-103.3-46.3-103.3-103.3-103.3zm0 179.6c-42.1 0-76.3-34.2-76.3-76.3s34.2-76.3 76.3-76.3 76.3 34.2 76.3 76.3-34.2 76.3-76.3 76.3z"></path>
  </symbol>
  <symbol xmlns="http://www.w3.org/2000/svg" viewBox="0 0 489 489" id="shopping-bag">
    <path d="M440.1 422.7l-28-315.3c-.6-7-6.5-12.3-13.4-12.3h-57.6C340.3 42.5 297.3 0 244.5 0s-95.8 42.5-96.6 95.1H90.3c-7 0-12.8 5.3-13.4 12.3l-28 315.3c0 .4-.1.8-.1 1.2 0 35.9 32.9 65.1 73.4 65.1h244.6c40.5 0 73.4-29.2 73.4-65.1 0-.4 0-.8-.1-1.2zM244.5 27c37.9 0 68.8 30.4 69.6 68.1H174.9c.8-37.7 31.7-68.1 69.6-68.1zm122.3 435H122.2c-25.4 0-46-16.8-46.4-37.5l26.8-302.3h45.2v41c0 7.5 6 13.5 13.5 13.5s13.5-6 13.5-13.5v-41h139.3v41c0 7.5 6 13.5 13.5 13.5s13.5-6 13.5-13.5v-41h45.2l26.9 302.3c-.4 20.7-21.1 37.5-46.4 37.5z"></path>
  </symbol>
  <symbol xmlns="http://www.w3.org/2000/svg" viewBox="0 0 486.569 486.569" id="shopping-cart">
    <path d="M146.069 320.369h268.1c30.4 0 55.2-24.8 55.2-55.2v-114c0-.2 0-.4-.1-.6 0-.2-.1-.5-.1-.7s-.1-.4-.1-.6c-.1-.2-.1-.4-.2-.7-.1-.2-.1-.4-.2-.6-.1-.2-.1-.4-.2-.6-.1-.2-.2-.4-.3-.7-.1-.2-.2-.4-.3-.5l-.3-.6c-.1-.2-.2-.3-.3-.5-.1-.2-.3-.4-.4-.6-.1-.2-.2-.3-.4-.5-.1-.2-.3-.3-.4-.5s-.3-.3-.4-.5-.3-.3-.4-.4l-.5-.5c-.2-.1-.3-.3-.5-.4-.2-.1-.4-.3-.6-.4-.2-.1-.3-.2-.5-.3s-.4-.2-.6-.4l-.6-.3-.6-.3-.6-.3c-.2-.1-.4-.1-.6-.2-.2-.1-.5-.2-.7-.2s-.4-.1-.5-.1c-.3-.1-.5-.1-.8-.1-.1 0-.2-.1-.4-.1l-339.8-46.9v-47.4c0-.5 0-1-.1-1.4 0-.1 0-.2-.1-.4 0-.3-.1-.6-.1-.9-.1-.3-.1-.5-.2-.8 0-.2-.1-.3-.1-.5l-.3-.9c0-.1-.1-.3-.1-.4-.1-.3-.2-.5-.4-.8-.1-.1-.1-.3-.2-.4-.1-.2-.2-.4-.4-.6-.1-.2-.2-.3-.3-.5s-.2-.3-.3-.5-.3-.4-.4-.6l-.3-.3-.6-.6-.3-.3c-.2-.2-.4-.4-.7-.6-.1-.1-.3-.2-.4-.3-.2-.2-.4-.3-.6-.5-.3-.2-.6-.4-.8-.5-.1-.1-.2-.1-.3-.2-.4-.2-.9-.4-1.3-.6l-73.7-31c-6.9-2.9-14.8.3-17.7 7.2s.3 14.8 7.2 17.7l65.4 27.6v295.8c0 28 21 51.2 48.1 54.7-4.9 8.2-7.8 17.8-7.8 28 0 30.1 24.5 54.5 54.5 54.5s54.5-24.5 54.5-54.5c0-10-2.7-19.5-7.5-27.5h121.4c-4.8 8.1-7.5 17.5-7.5 27.5 0 30.1 24.5 54.5 54.5 54.5s54.5-24.5 54.5-54.5-24.5-54.5-54.5-54.5h-255c-15.6 0-28.2-12.7-28.2-28.2v-36.6c8.2 4.8 17.9 7.6 28.2 7.6zm67.2 111.6c0 15.2-12.4 27.5-27.5 27.5s-27.5-12.4-27.5-27.5 12.4-27.5 27.5-27.5 27.5 12.3 27.5 27.5zm215.4 0c0 15.2-12.4 27.5-27.5 27.5s-27.5-12.4-27.5-27.5 12.4-27.5 27.5-27.5 27.5 12.3 27.5 27.5zm-14.5-138.6h-268.1c-15.6 0-28.2-12.7-28.2-28.2v-145.9l324.5 44.7v101.1c0 15.7-12.7 28.3-28.2 28.3z"></path>
  </symbol>
  <symbol xmlns="http://www.w3.org/2000/svg" viewBox="0 0 482.6 482.6" id="telephone">
    <path d="M98.339 320.8c47.6 56.9 104.9 101.7 170.3 133.4 24.9 11.8 58.2 25.8 95.3 28.2 2.3.1 4.5.2 6.8.2 24.9 0 44.9-8.6 61.2-26.3.1-.1.3-.3.4-.5 5.8-7 12.4-13.3 19.3-20 4.7-4.5 9.5-9.2 14.1-14 21.3-22.2 21.3-50.4-.2-71.9l-60.1-60.1c-10.2-10.6-22.4-16.2-35.2-16.2-12.8 0-25.1 5.6-35.6 16.1l-35.8 35.8c-3.3-1.9-6.7-3.6-9.9-5.2-4-2-7.7-3.9-11-6-32.6-20.7-62.2-47.7-90.5-82.4-14.3-18.1-23.9-33.3-30.6-48.8 9.4-8.5 18.2-17.4 26.7-26.1 3-3.1 6.1-6.2 9.2-9.3 10.8-10.8 16.6-23.3 16.6-36s-5.7-25.2-16.6-36l-29.8-29.8c-3.5-3.5-6.8-6.9-10.2-10.4-6.6-6.8-13.5-13.8-20.3-20.1-10.3-10.1-22.4-15.4-35.2-15.4-12.7 0-24.9 5.3-35.6 15.5l-37.4 37.4c-13.6 13.6-21.3 30.1-22.9 49.2-1.9 23.9 2.5 49.3 13.9 80 17.5 47.5 43.9 91.6 83.1 138.7zm-72.6-216.6c1.2-13.3 6.3-24.4 15.9-34l37.2-37.2c5.8-5.6 12.2-8.5 18.4-8.5 6.1 0 12.3 2.9 18 8.7 6.7 6.2 13 12.7 19.8 19.6 3.4 3.5 6.9 7 10.4 10.6l29.8 29.8c6.2 6.2 9.4 12.5 9.4 18.7s-3.2 12.5-9.4 18.7c-3.1 3.1-6.2 6.3-9.3 9.4-9.3 9.4-18 18.3-27.6 26.8l-.5.5c-8.3 8.3-7 16.2-5 22.2.1.3.2.5.3.8 7.7 18.5 18.4 36.1 35.1 57.1 30 37 61.6 65.7 96.4 87.8 4.3 2.8 8.9 5 13.2 7.2 4 2 7.7 3.9 11 6 .4.2.7.4 1.1.6 3.3 1.7 6.5 2.5 9.7 2.5 8 0 13.2-5.1 14.9-6.8l37.4-37.4c5.8-5.8 12.1-8.9 18.3-8.9 7.6 0 13.8 4.7 17.7 8.9l60.3 60.2c12 12 11.9 25-.3 37.7-4.2 4.5-8.6 8.8-13.3 13.3-7 6.8-14.3 13.8-20.9 21.7-11.5 12.4-25.2 18.2-42.9 18.2-1.7 0-3.5-.1-5.2-.2-32.8-2.1-63.3-14.9-86.2-25.8-62.2-30.1-116.8-72.8-162.1-127-37.3-44.9-62.4-86.7-79-131.5-10.3-27.5-14.2-49.6-12.6-69.7z"></path>
  </symbol>
  <symbol xmlns="http://www.w3.org/2000/svg" viewBox="0 0 490.1 490.1" id="transfer">
    <path d="M385.9 14.2H104.3c-28.2 0-51.1 22.9-51.1 51.1v233.1l-32.3-32.3c-4.8-4.8-12.5-4.8-17.3 0s-4.8 12.5 0 17.3l53.3 53.3c2.4 2.4 5.5 3.6 8.7 3.6s6.3-1.2 8.7-3.6l53.3-53.3c4.8-4.8 4.8-12.5 0-17.3-4.8-4.8-12.5-4.8-17.3 0l-32.4 32.4V65.3c0-14.7 11.9-26.6 26.6-26.6H386c14.7 0 26.6 11.9 26.6 26.6v34c0 6.8 5.5 12.3 12.3 12.3s12.3-5.5 12.3-12.3v-34c-.3-28.1-23.2-51.1-51.3-51.1zM416 153.5l-53.3 53.3c-4.8 4.8-4.8 12.5 0 17.3 2.4 2.4 5.5 3.6 8.7 3.6s6.3-1.2 8.7-3.6l32.4-32.4v233.1c0 14.7-11.9 26.6-26.6 26.6H104.3c-14.7 0-26.6-11.9-26.6-26.6v-34c0-6.8-5.5-12.3-12.3-12.3s-12.3 5.5-12.3 12.3v34c0 28.2 22.9 51.1 51.1 51.1h281.5c28.2 0 51.1-22.9 51.1-51.1V191.7l32.4 32.4c4.8 4.8 12.5 4.8 17.3 0s4.8-12.5 0-17.3l-53.3-53.3c-4.4-4.6-12.6-4.6-17.2 0z"></path>
    <path d="M245.1 136.7c-6.8 0-12.3 5.5-12.3 12.3v18.8h-1.6c-23.4 0-42.5 20.1-42.5 44.7s19.1 44.7 42.5 44.7h27.6c9.9 0 18 9.1 18 20.2 0 11.2-8.1 20.2-18 20.2h-49.6c-6.8 0-12.3 5.5-12.3 12.3s5.5 12.3 12.3 12.3h23.6v19.1c0 6.8 5.5 12.3 12.3 12.3s12.3-5.5 12.3-12.3v-19.2h2.1c23.2-.3 41.9-20.3 41.9-44.7 0-24.7-19.1-44.7-42.5-44.7h-27.6c-9.9 0-18-9.1-18-20.2s8.1-20.2 18-20.2H280c6.8 0 12.3-5.5 12.3-12.3s-5.5-12.3-12.3-12.3h-22.6v-18.8c-.1-6.7-5.5-12.2-12.3-12.2z"></path>
  </symbol>
  <symbol xmlns="http://www.w3.org/2000/svg" viewBox="0 0 487.6 487.6" id="wallet">
    <path d="M460.3 216.55h-11.6v-69.7c0-28.5-23.2-51.6-51.6-51.6h-10.7l.1-25.9c0-19.2-15.6-34.8-34.8-34.8H42.3c-23.1 0-42 18.6-42.3 41.7v342c0 19.2 15.6 34.8 34.8 34.8h362.4c28.5 0 51.6-23.2 51.6-51.6v-69.8h11.6c15 0 27.2-12.2 27.2-27.2v-60.7c-.1-15-12.3-27.2-27.3-27.2zm-418-158h309.4c5.9 0 10.8 4.8 10.8 10.7l-.1 26H42.3c-10.1 0-18.3-8.2-18.3-18.3s8.2-18.4 18.3-18.4zm382.4 342.8c0 15.2-12.4 27.6-27.6 27.6H34.7c-5.9 0-10.8-4.8-10.8-10.8v-303.1c5.6 2.7 11.8 4.2 18.4 4.2h354.8c15.2 0 27.6 12.4 27.6 27.6v69.7h-81.9c-15 0-27.2 12.2-27.2 27.2v60.7c0 15 12.2 27.2 27.2 27.2h81.9v69.7zm38.8-96.9c0 1.8-1.4 3.2-3.2 3.2H342.9c-1.8 0-3.2-1.4-3.2-3.2v-60.7c0-1.7 1.4-3.2 3.2-3.2h117.4c1.7 0 3.2 1.4 3.2 3.2v60.7z"></path>
  </symbol>
</svg>